<?xml version="1.0" encoding="utf-8"?>
<svg width="1155" height="221" viewBox="0 0 1155 221" xmlns="http://www.w3.org/2000/svg">
  <defs>
    <rect id="a" width="735" height="170" x="210" y="25" rx="30"/>
    <mask id="b" width="735" height="170" x="0" y="0" fill="#fff" maskContentUnits="userSpaceOnUse" maskUnits="objectBoundingBox">
      <rect width="737.824" height="170" x="210" y="25" rx="30"/>
    </mask>
  </defs>
  <g fill="none" fill-rule="evenodd" transform="matrix(1, 0, 0, 1, 0.705887, 26.706049)">
    <rect width="145" height="80" x="2.5" y="2.5" fill="#D8D8D8" stroke="#6A6A6A" stroke-width="5" rx="10" transform="translate(0 70)"/>
    <path fill="#3D4251" fill-rule="nonzero" d="M55.4 99.7v3.9h-7.6V125H43v-21.4h-7.7v-3.9h20zm10.2 7c1 0 2.1.2 3 .6a6.8 6.8 0 014.1 4.1 9.6 9.6 0 01.6 4.3l-.2.5-.3.3H61.3c0 2 .6 3.3 1.4 4.1.9.9 2 1.3 3.5 1.3a6 6 0 001.8-.2l1.3-.6 1-.5.8-.3c.2 0 .3 0 .5.2l.3.2 1.3 1.6c-.5.6-1 1-1.6 1.4a9 9 0 01-3.9 1.4l-2 .2c-1.2 0-2.3-.2-3.4-.7-1-.4-2-1-2.8-1.8a8.6 8.6 0 01-1.9-3 11.6 11.6 0 010-7.6c.3-1.1.9-2 1.6-2.8a8 8 0 012.7-2 9 9 0 013.7-.6zm0 3.2a4 4 0 00-3 1c-.6.7-1 1.8-1.3 3h8.1c0-.5 0-1-.2-1.5-.1-.5-.4-1-.7-1.3-.3-.4-.7-.7-1.2-1a4 4 0 00-1.7-.2zm15.5 5.8l-5.9-8.7h4.2c.3 0 .5 0 .7.2l.4.4 3.7 6a4.9 4.9 0 01.6-1.2l3-4.7.4-.5.6-.2h4l-6 8.5L93 125h-4.2c-.3 0-.5 0-.7-.2l-.5-.6-3.8-6.3-.4 1.1-3.4 5.2-.5.5a1 1 0 01-.7.3H75l6-9.3zm20.5 9.6c-1.5 0-2.7-.5-3.5-1.3a5 5 0 01-1.3-3.7v-10H95c-.3 0-.5 0-.6-.2-.2-.2-.3-.4-.3-.7v-1.7l2.9-.5 1-5c0-.1 0-.3.2-.5l.7-.2h2.2v5.7h4.7v3h-4.7v9.8c0 .6.2 1 .4 1.3.3.3.7.5 1.2.5l.6-.1a3.7 3.7 0 00.9-.4l.3-.1.3.1.3.3 1.2 2c-.6.6-1.3 1-2.1 1.3a8 8 0 01-2.6.4z"/>
    <rect width="145" height="80" x="1005.381" y="72.5" fill="#D7CCF4" stroke="#8978B5" stroke-width="5" rx="10"/>
    <path fill="#3D4251" fill-rule="nonzero" d="M 1049.593 100.088 C 1051.851 99.823 1054.121 99.69 1056.393 99.688 C 1058.593 99.688 1060.393 100.088 1061.793 100.688 C 1063.193 101.288 1064.293 102.188 1065.193 103.288 C 1066.047 104.481 1066.627 105.846 1066.893 107.288 C 1067.563 110.453 1067.563 113.723 1066.893 116.888 C 1066.593 118.388 1065.893 119.788 1065.093 120.888 C 1064.293 122.188 1063.093 123.088 1061.593 123.888 C 1060.093 124.588 1058.193 124.888 1055.793 124.888 C 1054.126 124.967 1052.456 124.933 1050.793 124.788 L 1049.593 124.588 L 1049.593 100.088 Z M 1056.593 104.088 C 1055.828 104.031 1055.059 104.031 1054.293 104.088 L 1054.293 120.588 L 1054.793 120.588 C 1055.327 120.624 1055.86 120.657 1056.393 120.688 C 1057.504 120.756 1058.612 120.514 1059.593 119.988 C 1060.393 119.488 1060.993 118.788 1061.393 117.988 C 1061.793 117.188 1062.093 116.188 1062.193 115.188 C 1062.399 113.26 1062.399 111.316 1062.193 109.388 C 1062.109 108.488 1061.872 107.609 1061.493 106.788 C 1061.093 105.988 1060.493 105.288 1059.693 104.788 C 1058.993 104.288 1057.893 103.988 1056.593 103.988 L 1056.593 104.088 Z M 1069.993 115.888 C 1069.993 114.388 1070.193 113.088 1070.693 111.888 C 1071.526 109.693 1073.281 107.974 1075.493 107.188 C 1076.593 106.788 1077.893 106.588 1079.293 106.588 C 1080.793 106.588 1082.093 106.788 1083.293 107.288 C 1084.293 107.688 1085.293 108.288 1086.193 109.088 C 1086.993 109.988 1087.593 110.888 1087.993 112.088 C 1088.393 113.188 1088.593 114.488 1088.593 115.788 C 1088.593 117.288 1088.393 118.588 1087.893 119.788 C 1087.061 121.983 1085.306 123.702 1083.093 124.488 C 1081.993 124.888 1080.693 125.088 1079.293 125.088 C 1077.928 125.105 1076.572 124.868 1075.293 124.388 C 1074.293 123.988 1073.293 123.388 1072.393 122.588 C 1071.577 121.735 1070.962 120.71 1070.593 119.588 C 1070.193 118.488 1069.993 117.188 1069.993 115.788 L 1069.993 115.888 Z M 1074.693 115.888 C 1074.693 116.588 1074.793 117.288 1074.993 117.888 C 1075.193 118.588 1075.493 119.188 1075.993 119.688 C 1076.801 120.674 1078.02 121.228 1079.293 121.188 C 1080.693 121.188 1081.793 120.788 1082.593 119.888 C 1083.493 119.088 1083.893 117.688 1083.893 115.888 C 1083.985 114.454 1083.56 113.035 1082.693 111.888 C 1081.893 110.888 1080.693 110.488 1079.293 110.488 C 1078.593 110.488 1077.993 110.488 1077.493 110.788 C 1076.893 110.988 1076.493 111.288 1075.993 111.788 C 1075.593 112.188 1075.293 112.788 1074.993 113.388 C 1074.793 114.088 1074.693 114.888 1074.693 115.788 L 1074.693 115.888 Z M 1108.893 122.888 C 1107.893 123.588 1106.893 124.188 1105.593 124.488 C 1104.293 124.888 1102.893 125.088 1101.593 125.088 C 1099.993 125.088 1098.593 124.888 1097.493 124.388 C 1096.293 123.988 1095.293 123.388 1094.493 122.588 C 1093.679 121.733 1093.065 120.709 1092.693 119.588 C 1091.757 117.107 1091.757 114.369 1092.693 111.888 C 1093.636 109.622 1095.544 107.898 1097.893 107.188 C 1100.362 106.437 1102.989 106.368 1105.493 106.988 L 1108.093 107.988 L 1108.093 114.088 L 1104.293 114.088 L 1104.293 110.888 L 1102.093 110.588 C 1101.393 110.588 1100.793 110.688 1100.093 110.888 C 1098.803 111.306 1097.749 112.25 1097.193 113.488 C 1096.893 114.188 1096.693 114.888 1096.693 115.788 C 1096.693 116.588 1096.893 117.288 1097.093 117.888 C 1097.602 119.167 1098.615 120.18 1099.893 120.688 C 1101.726 121.281 1103.708 121.21 1105.493 120.488 L 1107.393 119.488 L 1108.893 122.888 Z"/>
    <rect width="737.824" height="170" x="210" y="25" rx="30" stroke="#3AC" stroke-dasharray="5 10" stroke-width="10" mask="url(#b)" style=""/>
    <g transform="translate(540)">
      <rect width="95" height="50" x="2.5" y="2.5" fill="#C3E7F1" stroke="#3AC" stroke-width="5" rx="10"/>
      <path fill="#3D4251" fill-rule="nonzero" d="M27.8 24.5h4.4l.3 1.6h.1a5.2 5.2 0 014.2-2c.7 0 1.3.1 1.8.3.6.2 1 .4 1.4.8.4.4.7 1 1 1.6.1.6.3 1.5.3 2.4V37H38v-7.1c0-1-.2-1.8-.7-2.2-.4-.5-1-.7-1.7-.7-.6 0-1.2.2-1.7.6-.5.3-.9.8-1 1.3V37h-3.3v-9.8h-1.8v-2.7zm16.9-5H50v11.6c0 1.2.2 2.1.5 2.6s.8.8 1.5.8c.5 0 1 0 1.3-.2l1-.4 1.2 2.2a15.3 15.3 0 01-1.8 1 6.1 6.1 0 01-2.3.3c-1.5 0-2.7-.4-3.5-1.3-.8-.8-1.1-1.9-1.1-3.4V22.3h-2.1v-2.7zm12.8 5h4.3L62 26h.1c.9-1.2 2.3-1.9 4.2-1.9a6 6 0 012.1.4c.7.3 1.2.6 1.7 1.1.4.6.8 1.2 1 2 .3.8.4 1.7.4 2.8 0 1-.1 2-.4 3-.3.8-.7 1.5-1.2 2.1-.6.6-1.2 1-2 1.4-.7.3-1.6.5-2.6.5-.5 0-1 0-1.5-.2-.5 0-1-.2-1.3-.3V42h-3.2V27.2h-1.9v-2.7zm8 2.4c-.7 0-1.3.2-1.8.5s-.9.8-1 1.4V34c.2.2.5.3 1 .4l1.3.2c.4 0 .9 0 1.3-.2s.7-.4 1-.8c.3-.4.6-.8.7-1.3.2-.6.3-1.2.3-2 0-1-.3-1.9-.8-2.5-.6-.6-1.2-.9-2-.9z"/>
    </g>
    <path fill="#3AC" d="M205 112.5L180 125v-25z"/>
    <path stroke="#3AC" stroke-linecap="square" stroke-width="5" d="M180 112.5h-23.1"/>
    <path fill="#3AC" d="M 1002.117 113.206 L 975.705 125.706 L 975.705 100.706 L 1002.117 113.206 Z" style=""/>
    <path stroke="#3AC" stroke-linecap="square" stroke-width="5" d="M 984.178 113.206 L 955.429 113.206" style=""/>
    <path fill="#EAC1CC" stroke="#F03969" stroke-linejoin="round" stroke-width="3.8" d="M230 75h135l23.5 43.4L365 160H230l23.5-41.5z"/>
    <path fill="#ADD8DD" stroke="#0047AB" stroke-linejoin="round" stroke-width="3.8" d="M 372.407 75.706 L 507.407 75.706 L 530.907 119.106 L 507.407 160.706 L 372.407 160.706 L 395.907 119.206 L 372.407 75.706 Z" style=""/>
    <path fill="#ADD8BB" stroke="#0047AB" stroke-linejoin="round" stroke-width="3.8" d="M 506.528 75.706 L 641.528 75.706 L 665.028 119.106 L 641.528 160.706 L 506.528 160.706 L 530.028 119.206 L 506.528 75.706 Z"/>
    <path fill="#ADD899" stroke="#0047AB" stroke-linejoin="round" stroke-width="3.8" d="M 640.706 75.706 L 775.706 75.706 L 799.206 119.106 L 775.706 160.706 L 640.706 160.706 L 664.206 119.206 L 640.706 75.706 Z"/>
    <path fill="#ADD866" stroke="#0047AB" stroke-linejoin="round" stroke-width="3.8" d="M 775.591 75.706 L 910.591 75.706 L 934.091 119.106 L 910.591 160.706 L 775.591 160.706 L 799.091 119.206 L 775.591 75.706 Z"/>
    <path fill="#3D4251" fill-rule="nonzero" d="M265.9 125.2c-1.1 0-2-.3-2.6-1-.6-.6-.9-1.4-.9-2.5v-7.2h-1.3c-.2 0-.3 0-.4-.2-.2 0-.2-.2-.2-.5v-1.2l2-.3.7-3.5.2-.4.5-.2h1.6v4h3.4v2.3h-3.4v7c0 .3 0 .6.3.9.2.2.5.3.8.3h.5a2.6 2.6 0 00.6-.3l.2-.1h.2l.2.3 1 1.5-1.6.8-1.8.3zm10.9-13.2c1 0 1.8.1 2.6.4a5.6 5.6 0 013.3 3.4c.3.8.4 1.8.4 2.8 0 1-.1 1.9-.4 2.7a5.5 5.5 0 01-3.3 3.4 7 7 0 01-2.6.5 7 7 0 01-2.6-.5 5.6 5.6 0 01-3.3-3.4 7.8 7.8 0 010-5.5c.3-.8.7-1.5 1.3-2 .5-.6 1.2-1 2-1.4a7 7 0 012.6-.4zm0 10.8c1 0 1.9-.3 2.4-1 .5-.8.7-1.8.7-3.2 0-1.4-.2-2.4-.7-3.2-.5-.7-1.3-1-2.4-1-1 0-1.9.3-2.4 1-.5.8-.8 1.8-.8 3.2 0 1.4.3 2.4.8 3.1.5.8 1.3 1.1 2.4 1.1zm11.9-16.4v10.7h.5l.5-.1.4-.3 3.2-4 .4-.4.7-.1h2.8l-4 4.7-.4.5-.5.4.4.4.4.6 4.3 6.2h-2.8l-.6-.1c-.2-.1-.3-.2-.4-.5l-3.3-4.8a1 1 0 00-.4-.4h-1.2v5.8h-3.1v-18.6h3zm16 5.6c.7 0 1.5.1 2.2.4a4.9 4.9 0 012.9 3 6.9 6.9 0 01.3 3v.3l-.3.2h-8.3c.1 1.4.5 2.4 1.1 3 .6.6 1.4.9 2.4.9.6 0 1 0 1.3-.2a22 22 0 001.7-.8l.6-.1h.3l.3.3.9 1c-.4.5-.8.8-1.2 1a6.4 6.4 0 01-2.7 1c-.5.2-1 .2-1.4.2-1 0-1.7-.2-2.5-.5s-1.4-.7-2-1.3c-.6-.5-1-1.3-1.4-2.1a8.3 8.3 0 010-5.5 5.7 5.7 0 013.2-3.4c.7-.3 1.6-.4 2.5-.4zm0 2.2c-1 0-1.6.2-2.1.8-.5.5-.9 1.2-1 2.1h5.8c0-.4 0-.8-.2-1.1 0-.4-.2-.7-.5-1l-.8-.6-1.2-.2zm8 10.8v-12.8h1.9c.4 0 .6.2.8.5l.2 1a7 7 0 011.7-1.2 4.6 4.6 0 012.2-.5c.7 0 1.4 0 1.9.3l1.4 1 .8 1.6c.2.6.3 1.2.3 2v8.1h-3.1v-8.2c0-.7-.2-1.4-.6-1.8-.3-.4-.9-.6-1.6-.6l-1.5.3c-.5.3-1 .6-1.3 1v9.3h-3.1zm17.5-12.8V125H327v-12.8h3zm.4-3.8l-.1.8a2 2 0 01-1 1 2 2 0 01-2.2-.4 2 2 0 01-.4-.6l-.2-.8a2 2 0 01.6-1.4 2 2 0 011.3-.5l.8.1a2 2 0 011 1l.3.8zm12.3 5v.7l-.3.5-6.2 8h6.4v2.4h-10v-1.3l.2-.5c0-.2.1-.4.3-.5l6.1-8.2h-6.2v-2.3h9.8v1.3zm7.8-1.4c.8 0 1.6.1 2.2.4a4.9 4.9 0 013 3 6.9 6.9 0 01.3 3v.3l-.3.2h-8.3c.1 1.4.5 2.4 1 3 .7.6 1.5.9 2.5.9.5 0 1 0 1.3-.2a22 22 0 001.7-.8l.6-.1h.3l.3.3.8 1c-.3.5-.7.8-1.1 1a6.4 6.4 0 01-2.7 1c-.5.2-1 .2-1.4.2-1 0-1.8-.2-2.5-.5-.8-.3-1.5-.7-2-1.3-.6-.5-1-1.3-1.4-2.1a8.3 8.3 0 010-5.5 5.7 5.7 0 013.2-3.4c.7-.3 1.6-.4 2.5-.4zm0 2.2c-.8 0-1.5.2-2 .8-.5.5-.9 1.2-1 2.1h5.8c0-.4 0-.8-.2-1.1 0-.4-.2-.7-.5-1l-.8-.6-1.2-.2zm8 10.8v-12.8h1.9l.6.1c.2.2.3.4.3.7l.2 1.5a6 6 0 011.6-1.9c.6-.4 1.3-.7 2-.7s1.2.2 1.6.5l-.3 2.3-.2.3-.3.1h-.6l-.8-.2c-.7 0-1.2.2-1.7.6a4 4 0 00-1.1 1.5v8h-3.1z"/>
  </g>
  <text style="fill: rgb(51, 51, 51); font-family: Arial, sans-serif; font-size: 22.8px; font-weight: 700; white-space: pre;" x="421.009" y="151.709">ner-1</text>
  <text style="fill: rgb(51, 51, 51); font-family: Arial, sans-serif; font-size: 24.7px; font-weight: 700; white-space: pre;" x="558.629" y="152.63">ner-2</text>
  <text style="fill: rgb(51, 51, 51); font-family: Arial, sans-serif; font-size: 24.7px; font-weight: 700; white-space: pre;" x="692.075" y="151.217">ner-3</text>
  <text style="fill: rgb(51, 51, 51); font-family: Arial, sans-serif; font-size: 24.7px; font-weight: 700; white-space: pre;" x="822.694" y="149.806">ner-4</text>
</svg>