<?xml version="1.0" encoding="utf-8"?>
<svg width="1155" height="221" viewBox="0 0 1155 221" xmlns="http://www.w3.org/2000/svg">
  <defs>
    <rect id="a" width="735" height="170" x="210" y="25" rx="30"/>
    <mask id="b" width="735" height="170" x="0" y="0" fill="#fff" maskContentUnits="userSpaceOnUse" maskUnits="objectBoundingBox">
      <rect width="487.953" height="170" x="306.61" y="5.75" rx="30"/>
    </mask>
  </defs>
  <g fill="none" fill-rule="evenodd" transform="matrix(1, 0, 0, 1, 25.857281, 22.331917)">
    <rect width="145" height="80" x="86.746" y="52.599" fill="#D8D8D8" stroke="#6A6A6A" stroke-width="5" rx="10"/>
    <path fill="#3D4251" fill-rule="nonzero" d="M 141.598 79.799 L 141.598 83.699 L 133.998 83.699 L 133.998 105.099 L 129.198 105.099 L 129.198 83.699 L 121.498 83.699 L 121.498 79.799 L 141.498 79.799 L 141.598 79.799 Z M 151.798 86.799 C 152.798 86.799 153.898 86.999 154.798 87.399 C 156.708 88.086 158.212 89.589 158.898 91.499 C 159.424 92.868 159.629 94.339 159.498 95.799 L 159.298 96.299 L 158.998 96.599 L 147.498 96.599 C 147.498 98.599 148.098 99.899 148.898 100.699 C 149.798 101.599 150.898 101.999 152.398 101.999 C 153.005 102.024 153.612 101.957 154.198 101.799 L 155.498 101.199 L 156.498 100.699 L 157.298 100.399 C 157.498 100.399 157.598 100.399 157.798 100.599 L 158.098 100.799 L 159.398 102.399 C 158.898 102.999 158.398 103.399 157.798 103.799 C 156.625 104.563 155.289 105.042 153.898 105.199 L 151.898 105.399 C 150.698 105.399 149.598 105.199 148.498 104.699 C 147.498 104.299 146.498 103.699 145.698 102.899 C 144.863 102.042 144.216 101.021 143.798 99.899 C 142.945 97.438 142.945 94.761 143.798 92.299 C 144.098 91.199 144.698 90.299 145.398 89.499 C 146.147 88.649 147.067 87.967 148.098 87.499 C 149.276 87.042 150.536 86.837 151.798 86.899 L 151.798 86.799 Z M 151.798 89.999 C 150.703 89.906 149.618 90.268 148.798 90.999 C 148.198 91.699 147.798 92.799 147.498 93.999 L 155.598 93.999 C 155.598 93.499 155.598 92.999 155.398 92.499 C 155.298 91.999 154.998 91.499 154.698 91.199 C 154.398 90.799 153.998 90.499 153.498 90.199 C 152.953 90.011 152.373 89.943 151.798 89.999 Z M 167.298 95.799 L 161.398 87.099 L 165.598 87.099 C 165.898 87.099 166.098 87.099 166.298 87.299 L 166.698 87.699 L 170.398 93.699 C 170.542 93.274 170.744 92.87 170.998 92.499 L 173.998 87.799 L 174.398 87.299 L 174.998 87.099 L 178.998 87.099 L 172.998 95.599 L 179.198 105.099 L 174.998 105.099 C 174.698 105.099 174.498 105.099 174.298 104.899 L 173.798 104.299 L 169.998 97.999 L 169.598 99.099 L 166.198 104.299 L 165.698 104.799 C 165.514 104.988 165.262 105.096 164.998 105.099 L 161.198 105.099 L 167.198 95.799 L 167.298 95.799 Z M 187.798 105.399 C 186.298 105.399 185.098 104.899 184.298 104.099 C 183.379 103.094 182.91 101.758 182.998 100.399 L 182.998 90.399 L 181.198 90.399 C 180.898 90.399 180.698 90.399 180.598 90.199 C 180.398 89.999 180.298 89.799 180.298 89.499 L 180.298 87.799 L 183.198 87.299 L 184.198 82.299 C 184.198 82.199 184.198 81.999 184.398 81.799 L 185.098 81.599 L 187.298 81.599 L 187.298 87.299 L 191.998 87.299 L 191.998 90.299 L 187.298 90.299 L 187.298 100.099 C 187.298 100.699 187.498 101.099 187.698 101.399 C 187.998 101.699 188.398 101.899 188.898 101.899 L 189.498 101.799 C 189.815 101.707 190.117 101.572 190.398 101.399 L 190.698 101.299 L 190.998 101.399 L 191.298 101.699 L 192.498 103.699 C 191.898 104.299 191.198 104.699 190.398 104.999 C 189.56 105.275 188.681 105.41 187.798 105.399 Z"/>
    <rect width="145" height="80" x="887.258" y="51.298" fill="#D7CCF4" stroke="#8978B5" stroke-width="5" rx="10"/>
    <path fill="#3D4251" fill-rule="nonzero" d="M 930.819 76.934 C 933.077 76.669 935.347 76.536 937.619 76.534 C 939.819 76.534 941.619 76.934 943.019 77.534 C 944.419 78.134 945.519 79.034 946.419 80.134 C 947.273 81.327 947.853 82.692 948.119 84.134 C 948.789 87.299 948.789 90.569 948.119 93.734 C 947.819 95.234 947.119 96.634 946.319 97.734 C 945.519 99.034 944.319 99.934 942.819 100.734 C 941.319 101.434 939.419 101.734 937.019 101.734 C 935.352 101.813 933.682 101.779 932.019 101.634 L 930.819 101.434 L 930.819 76.934 Z M 937.819 80.934 C 937.054 80.877 936.285 80.877 935.519 80.934 L 935.519 97.434 L 936.019 97.434 C 936.553 97.47 937.086 97.503 937.619 97.534 C 938.73 97.602 939.838 97.36 940.819 96.834 C 941.619 96.334 942.219 95.634 942.619 94.834 C 943.019 94.034 943.319 93.034 943.419 92.034 C 943.625 90.106 943.625 88.162 943.419 86.234 C 943.335 85.334 943.098 84.455 942.719 83.634 C 942.319 82.834 941.719 82.134 940.919 81.634 C 940.219 81.134 939.119 80.834 937.819 80.834 L 937.819 80.934 Z M 951.219 92.734 C 951.219 91.234 951.419 89.934 951.919 88.734 C 952.752 86.539 954.507 84.82 956.719 84.034 C 957.819 83.634 959.119 83.434 960.519 83.434 C 962.019 83.434 963.319 83.634 964.519 84.134 C 965.519 84.534 966.519 85.134 967.419 85.934 C 968.219 86.834 968.819 87.734 969.219 88.934 C 969.619 90.034 969.819 91.334 969.819 92.634 C 969.819 94.134 969.619 95.434 969.119 96.634 C 968.287 98.829 966.532 100.548 964.319 101.334 C 963.219 101.734 961.919 101.934 960.519 101.934 C 959.154 101.951 957.798 101.714 956.519 101.234 C 955.519 100.834 954.519 100.234 953.619 99.434 C 952.803 98.581 952.188 97.556 951.819 96.434 C 951.419 95.334 951.219 94.034 951.219 92.634 L 951.219 92.734 Z M 955.919 92.734 C 955.919 93.434 956.019 94.134 956.219 94.734 C 956.419 95.434 956.719 96.034 957.219 96.534 C 958.027 97.52 959.246 98.074 960.519 98.034 C 961.919 98.034 963.019 97.634 963.819 96.734 C 964.719 95.934 965.119 94.534 965.119 92.734 C 965.211 91.3 964.786 89.881 963.919 88.734 C 963.119 87.734 961.919 87.334 960.519 87.334 C 959.819 87.334 959.219 87.334 958.719 87.634 C 958.119 87.834 957.719 88.134 957.219 88.634 C 956.819 89.034 956.519 89.634 956.219 90.234 C 956.019 90.934 955.919 91.734 955.919 92.634 L 955.919 92.734 Z M 990.119 99.734 C 989.119 100.434 988.119 101.034 986.819 101.334 C 985.519 101.734 984.119 101.934 982.819 101.934 C 981.219 101.934 979.819 101.734 978.719 101.234 C 977.519 100.834 976.519 100.234 975.719 99.434 C 974.905 98.579 974.291 97.555 973.919 96.434 C 972.983 93.953 972.983 91.215 973.919 88.734 C 974.862 86.468 976.77 84.744 979.119 84.034 C 981.588 83.283 984.215 83.214 986.719 83.834 L 989.319 84.834 L 989.319 90.934 L 985.519 90.934 L 985.519 87.734 L 983.319 87.434 C 982.619 87.434 982.019 87.534 981.319 87.734 C 980.029 88.152 978.975 89.096 978.419 90.334 C 978.119 91.034 977.919 91.734 977.919 92.634 C 977.919 93.434 978.119 94.134 978.319 94.734 C 978.828 96.013 979.841 97.026 981.119 97.534 C 982.952 98.127 984.934 98.056 986.719 97.334 L 988.619 96.334 L 990.119 99.734 Z"/>
    <rect width="487.953" height="170" x="306.61" y="5.75" rx="30" stroke="#3AC" stroke-dasharray="5 10" stroke-width="10" mask="url(#b)" style=""/>
    <g transform="matrix(1, 0, 0, 1, 516.228943, -19.900684)">
      <rect width="95" height="50" x="2.5" y="2.5" fill="#C3E7F1" stroke="#3AC" stroke-width="5" rx="10"/>
      <path fill="#3D4251" fill-rule="nonzero" d="M27.8 24.5h4.4l.3 1.6h.1a5.2 5.2 0 014.2-2c.7 0 1.3.1 1.8.3.6.2 1 .4 1.4.8.4.4.7 1 1 1.6.1.6.3 1.5.3 2.4V37H38v-7.1c0-1-.2-1.8-.7-2.2-.4-.5-1-.7-1.7-.7-.6 0-1.2.2-1.7.6-.5.3-.9.8-1 1.3V37h-3.3v-9.8h-1.8v-2.7zm16.9-5H50v11.6c0 1.2.2 2.1.5 2.6s.8.8 1.5.8c.5 0 1 0 1.3-.2l1-.4 1.2 2.2a15.3 15.3 0 01-1.8 1 6.1 6.1 0 01-2.3.3c-1.5 0-2.7-.4-3.5-1.3-.8-.8-1.1-1.9-1.1-3.4V22.3h-2.1v-2.7zm12.8 5h4.3L62 26h.1c.9-1.2 2.3-1.9 4.2-1.9a6 6 0 012.1.4c.7.3 1.2.6 1.7 1.1.4.6.8 1.2 1 2 .3.8.4 1.7.4 2.8 0 1-.1 2-.4 3-.3.8-.7 1.5-1.2 2.1-.6.6-1.2 1-2 1.4-.7.3-1.6.5-2.6.5-.5 0-1 0-1.5-.2-.5 0-1-.2-1.3-.3V42h-3.2V27.2h-1.9v-2.7zm8 2.4c-.7 0-1.3.2-1.8.5s-.9.8-1 1.4V34c.2.2.5.3 1 .4l1.3.2c.4 0 .9 0 1.3-.2s.7-.4 1-.8c.3-.4.6-.8.7-1.3.2-.6.3-1.2.3-2 0-1-.3-1.9-.8-2.5-.6-.6-1.2-.9-2-.9z"/>
    </g>
    <path fill="#3AC" d="M 294.452 93.25 L 269.452 105.75 L 269.452 80.75 L 294.452 93.25 Z"/>
    <path stroke="#3AC" stroke-linecap="square" stroke-width="5" d="M 268.15 93.25 L 245.05 93.25"/>
    <path fill="#3AC" d="M 874.884 90.702 L 848.472 103.202 L 848.472 78.202 L 874.884 90.702 Z" style=""/>
    <path stroke="#3AC" stroke-linecap="square" stroke-width="5" d="M 845.883 90.702 L 817.134 90.702" style=""/>
    <path fill="#EAC1CC" stroke="#F03969" stroke-linejoin="round" stroke-width="3.8" d="M 335.719 55.75 L 470.719 55.75 L 494.219 99.15 L 470.719 140.75 L 335.719 140.75 L 359.219 99.25 L 335.719 55.75 Z"/>
    <path fill="#ADD8DD" stroke="#0047AB" stroke-linejoin="round" stroke-width="3.8" d="M 503.138 55.805 L 733.757 55.805 L 761.898 99.911 L 733.757 140.805 L 503.138 140.805 L 530.574 99.305 L 503.138 55.805 Z" style=""/>
    <path fill="#3D4251" fill-rule="nonzero" d="M 372.27 105.95 C 371.17 105.95 370.27 105.65 369.67 104.95 C 369.07 104.35 368.77 103.55 368.77 102.45 L 368.77 95.25 L 367.47 95.25 C 367.27 95.25 367.17 95.25 367.07 95.05 C 366.87 95.05 366.87 94.85 366.87 94.55 L 366.87 93.35 L 368.87 93.05 L 369.57 89.55 L 369.77 89.15 L 370.27 88.95 L 371.87 88.95 L 371.87 92.95 L 375.27 92.95 L 375.27 95.25 L 371.87 95.25 L 371.87 102.25 C 371.87 102.55 371.87 102.85 372.17 103.15 C 372.37 103.35 372.67 103.45 372.97 103.45 L 373.47 103.45 C 373.682 103.376 373.884 103.276 374.07 103.15 L 374.27 103.05 L 374.47 103.05 L 374.67 103.35 L 375.67 104.85 L 374.07 105.65 L 372.27 105.95 Z M 383.17 92.75 C 384.17 92.75 384.97 92.85 385.77 93.15 C 387.319 93.739 388.527 94.984 389.07 96.55 C 389.37 97.35 389.47 98.35 389.47 99.35 C 389.47 100.35 389.37 101.25 389.07 102.05 C 388.539 103.623 387.327 104.873 385.77 105.45 C 384.943 105.781 384.06 105.95 383.17 105.95 C 382.279 105.95 381.397 105.781 380.57 105.45 C 379.021 104.861 377.813 103.616 377.27 102.05 C 376.602 100.278 376.602 98.323 377.27 96.55 C 377.57 95.75 377.97 95.05 378.57 94.55 C 379.07 93.95 379.77 93.55 380.57 93.15 C 381.403 92.854 382.286 92.718 383.17 92.75 Z M 383.17 103.55 C 384.17 103.55 385.07 103.25 385.57 102.55 C 386.07 101.75 386.27 100.75 386.27 99.35 C 386.27 97.95 386.07 96.95 385.57 96.15 C 385.07 95.45 384.27 95.15 383.17 95.15 C 382.17 95.15 381.27 95.45 380.77 96.15 C 380.27 96.95 379.97 97.95 379.97 99.35 C 379.97 100.75 380.27 101.75 380.77 102.45 C 381.27 103.25 382.07 103.55 383.17 103.55 Z M 395.07 87.15 L 395.07 97.85 L 395.57 97.85 L 396.07 97.75 L 396.47 97.45 L 399.67 93.45 L 400.07 93.05 L 400.77 92.95 L 403.57 92.95 L 399.57 97.65 L 399.17 98.15 L 398.67 98.55 L 399.07 98.95 L 399.47 99.55 L 403.77 105.75 L 400.97 105.75 L 400.37 105.65 C 400.17 105.55 400.07 105.45 399.97 105.15 L 396.67 100.35 C 396.578 100.181 396.439 100.042 396.27 99.95 L 395.07 99.95 L 395.07 105.75 L 391.97 105.75 L 391.97 87.15 L 394.97 87.15 L 395.07 87.15 Z M 411.07 92.75 C 411.77 92.75 412.57 92.85 413.27 93.15 C 414.635 93.668 415.699 94.768 416.17 96.15 C 416.49 97.116 416.592 98.14 416.47 99.15 L 416.47 99.45 L 416.17 99.65 L 407.87 99.65 C 407.97 101.05 408.37 102.05 408.97 102.65 C 409.57 103.25 410.37 103.55 411.37 103.55 C 411.97 103.55 412.37 103.55 412.67 103.35 C 413.248 103.108 413.815 102.841 414.37 102.55 L 414.97 102.45 L 415.27 102.45 L 415.57 102.75 L 416.47 103.75 C 416.07 104.25 415.67 104.55 415.27 104.75 C 414.458 105.284 413.534 105.626 412.57 105.75 C 412.07 105.95 411.57 105.95 411.17 105.95 C 410.17 105.95 409.47 105.75 408.67 105.45 C 407.87 105.15 407.27 104.75 406.67 104.15 C 406.07 103.65 405.67 102.85 405.27 102.05 C 404.645 100.27 404.645 98.33 405.27 96.55 C 405.802 95.012 406.967 93.775 408.47 93.15 C 409.17 92.85 410.07 92.75 410.97 92.75 L 411.07 92.75 Z M 411.07 94.95 C 410.07 94.95 409.47 95.15 408.97 95.75 C 408.47 96.25 408.07 96.95 407.97 97.85 L 413.77 97.85 C 413.77 97.45 413.77 97.05 413.57 96.75 C 413.57 96.35 413.37 96.05 413.07 95.75 L 412.27 95.15 L 411.07 94.95 Z M 419.07 105.75 L 419.07 92.95 L 420.97 92.95 C 421.37 92.95 421.57 93.15 421.77 93.45 L 421.97 94.45 C 422.474 93.968 423.047 93.563 423.67 93.25 C 424.35 92.903 425.106 92.732 425.87 92.75 C 426.57 92.75 427.27 92.75 427.77 93.05 L 429.17 94.05 L 429.97 95.65 C 430.17 96.25 430.27 96.85 430.27 97.65 L 430.27 105.75 L 427.17 105.75 L 427.17 97.55 C 427.17 96.85 426.97 96.15 426.57 95.75 C 426.27 95.35 425.67 95.15 424.97 95.15 L 423.47 95.45 C 422.97 95.75 422.47 96.05 422.17 96.45 L 422.17 105.75 L 419.07 105.75 Z M 436.57 92.95 L 436.57 105.75 L 433.37 105.75 L 433.37 92.95 L 436.37 92.95 L 436.57 92.95 Z M 436.97 89.15 L 436.87 89.95 C 436.669 90.394 436.314 90.75 435.87 90.95 C 435.124 91.277 434.253 91.119 433.67 90.55 C 433.501 90.376 433.366 90.173 433.27 89.95 L 433.07 89.15 C 433.077 88.623 433.293 88.119 433.67 87.75 C 434.029 87.433 434.491 87.256 434.97 87.25 L 435.77 87.35 C 436.214 87.551 436.569 87.906 436.77 88.35 L 437.07 89.15 L 436.97 89.15 Z M 449.27 94.15 L 449.27 94.85 L 448.97 95.35 L 442.77 103.35 L 449.17 103.35 L 449.17 105.75 L 439.17 105.75 L 439.17 104.45 L 439.37 103.95 C 439.37 103.75 439.47 103.55 439.67 103.45 L 445.77 95.25 L 439.57 95.25 L 439.57 92.95 L 449.37 92.95 L 449.37 94.25 L 449.27 94.15 Z M 457.07 92.75 C 457.87 92.75 458.67 92.85 459.27 93.15 C 460.673 93.643 461.777 94.747 462.27 96.15 C 462.59 97.116 462.692 98.14 462.57 99.15 L 462.57 99.45 L 462.27 99.65 L 453.97 99.65 C 454.07 101.05 454.47 102.05 454.97 102.65 C 455.67 103.25 456.47 103.55 457.47 103.55 C 457.97 103.55 458.47 103.55 458.77 103.35 C 459.348 103.108 459.915 102.841 460.47 102.55 L 461.07 102.45 L 461.37 102.45 L 461.67 102.75 L 462.47 103.75 C 462.17 104.25 461.77 104.55 461.37 104.75 C 460.558 105.284 459.634 105.626 458.67 105.75 C 458.17 105.95 457.67 105.95 457.27 105.95 C 456.27 105.95 455.47 105.75 454.77 105.45 C 453.97 105.15 453.27 104.75 452.77 104.15 C 452.17 103.65 451.77 102.85 451.37 102.05 C 450.745 100.27 450.745 98.33 451.37 96.55 C 451.902 95.012 453.067 93.775 454.57 93.15 C 455.27 92.85 456.17 92.75 457.07 92.75 Z M 457.07 94.95 C 456.27 94.95 455.57 95.15 455.07 95.75 C 454.57 96.25 454.17 96.95 454.07 97.85 L 459.87 97.85 C 459.87 97.45 459.87 97.05 459.67 96.75 C 459.67 96.35 459.47 96.05 459.17 95.75 L 458.37 95.15 L 457.17 94.95 L 457.07 94.95 Z M 465.07 105.75 L 465.07 92.95 L 466.97 92.95 L 467.57 93.05 C 467.77 93.25 467.87 93.45 467.87 93.75 L 468.07 95.25 C 468.465 94.512 469.01 93.865 469.67 93.35 C 470.27 92.95 470.97 92.65 471.67 92.65 C 472.37 92.65 472.87 92.85 473.27 93.15 L 472.97 95.45 L 472.77 95.75 L 472.47 95.85 L 471.87 95.85 L 471.07 95.65 C 470.37 95.65 469.87 95.85 469.37 96.25 C 468.89 96.657 468.514 97.171 468.27 97.75 L 468.27 105.75 L 465.17 105.75 L 465.07 105.75 Z"/>
  </g>
  <text style="fill: rgb(51, 51, 51); font-family: Arial, sans-serif; font-size: 24.7px; font-weight: 700; white-space: pre;" x="612.363" y="128.42">ner-full</text>
  <text style="white-space: pre; fill: rgb(51, 51, 51); font-family: Arial, sans-serif; font-size: 24.7px;" x="640.97" y="257.616"> </text>
  <text style="white-space: pre; fill: rgb(51, 51, 51); font-family: Arial, sans-serif; font-size: 24.7px;" x="607.786" y="255.498"> </text>
</svg>